<?xml version="1.0" encoding="UTF-8"?>
<!DOCTYPE svg PUBLIC "-//W3C//DTD SVG 1.1//EN" "http://www.w3.org/Graphics/SVG/1.1/DTD/svg11.dtd">
<svg version="1.2" width="19.56mm" height="19.56mm" viewBox="0 0 1956 1956" preserveAspectRatio="xMidYMid" fill-rule="evenodd" stroke-width="28.222" stroke-linejoin="round" xmlns="http://www.w3.org/2000/svg" xmlns:ooo="http://xml.openoffice.org/svg/export" xmlns:xlink="http://www.w3.org/1999/xlink" xmlns:presentation="http://sun.com/xmlns/staroffice/presentation" xmlns:smil="http://www.w3.org/2001/SMIL20/" xmlns:anim="urn:oasis:names:tc:opendocument:xmlns:animation:1.0" xml:space="preserve">
 <defs class="ClipPathGroup">
  <clipPath id="presentation_clip_path" clipPathUnits="userSpaceOnUse">
   <rect x="0" y="0" width="1956" height="1956"/>
  </clipPath>
  <clipPath id="presentation_clip_path_shrink" clipPathUnits="userSpaceOnUse">
   <rect x="1" y="1" width="1953" height="1953"/>
  </clipPath>
 </defs>
 <defs class="TextShapeIndex">
  <g ooo:slide="id1" ooo:id-list="id3"/>
 </defs>
 <defs class="EmbeddedBulletChars">
  <g id="bullet-char-template-57356" transform="scale(0.00048828125,-0.00048828125)">
   <path d="M 580,1141 L 1163,571 580,0 -4,571 580,1141 Z"/>
  </g>
  <g id="bullet-char-template-57354" transform="scale(0.00048828125,-0.00048828125)">
   <path d="M 8,1128 L 1137,1128 1137,0 8,0 8,1128 Z"/>
  </g>
  <g id="bullet-char-template-10146" transform="scale(0.00048828125,-0.00048828125)">
   <path d="M 174,0 L 602,739 174,1481 1456,739 174,0 Z M 1358,739 L 309,1346 659,739 1358,739 Z"/>
  </g>
  <g id="bullet-char-template-10132" transform="scale(0.00048828125,-0.00048828125)">
   <path d="M 2015,739 L 1276,0 717,0 1260,543 174,543 174,936 1260,936 717,1481 1274,1481 2015,739 Z"/>
  </g>
  <g id="bullet-char-template-10007" transform="scale(0.00048828125,-0.00048828125)">
   <path d="M 0,-2 C -7,14 -16,27 -25,37 L 356,567 C 262,823 215,952 215,954 215,979 228,992 255,992 264,992 276,990 289,987 310,991 331,999 354,1012 L 381,999 492,748 772,1049 836,1024 860,1049 C 881,1039 901,1025 922,1006 886,937 835,863 770,784 769,783 710,716 594,584 L 774,223 C 774,196 753,168 711,139 L 727,119 C 717,90 699,76 672,76 641,76 570,178 457,381 L 164,-76 C 142,-110 111,-127 72,-127 30,-127 9,-110 8,-76 1,-67 -2,-52 -2,-32 -2,-23 -1,-13 0,-2 Z"/>
  </g>
  <g id="bullet-char-template-10004" transform="scale(0.00048828125,-0.00048828125)">
   <path d="M 285,-33 C 182,-33 111,30 74,156 52,228 41,333 41,471 41,549 55,616 82,672 116,743 169,778 240,778 293,778 328,747 346,684 L 369,508 C 377,444 397,411 428,410 L 1163,1116 C 1174,1127 1196,1133 1229,1133 1271,1133 1292,1118 1292,1087 L 1292,965 C 1292,929 1282,901 1262,881 L 442,47 C 390,-6 338,-33 285,-33 Z"/>
  </g>
  <g id="bullet-char-template-9679" transform="scale(0.00048828125,-0.00048828125)">
   <path d="M 813,0 C 632,0 489,54 383,161 276,268 223,411 223,592 223,773 276,916 383,1023 489,1130 632,1184 813,1184 992,1184 1136,1130 1245,1023 1353,916 1407,772 1407,592 1407,412 1353,268 1245,161 1136,54 992,0 813,0 Z"/>
  </g>
  <g id="bullet-char-template-8226" transform="scale(0.00048828125,-0.00048828125)">
   <path d="M 346,457 C 273,457 209,483 155,535 101,586 74,649 74,723 74,796 101,859 155,911 209,963 273,989 346,989 419,989 480,963 531,910 582,859 608,796 608,723 608,648 583,586 532,535 482,483 420,457 346,457 Z"/>
  </g>
  <g id="bullet-char-template-8211" transform="scale(0.00048828125,-0.00048828125)">
   <path d="M -4,459 L 1135,459 1135,606 -4,606 -4,459 Z"/>
  </g>
  <g id="bullet-char-template-61548" transform="scale(0.00048828125,-0.00048828125)">
   <path d="M 173,740 C 173,903 231,1043 346,1159 462,1274 601,1332 765,1332 928,1332 1067,1274 1183,1159 1299,1043 1357,903 1357,740 1357,577 1299,437 1183,322 1067,206 928,148 765,148 601,148 462,206 346,322 231,437 173,577 173,740 Z"/>
  </g>
 </defs>
 <g>
  <g id="id2" class="Master_Slide">
   <g id="bg-id2" class="Background"/>
   <g id="bo-id2" class="BackgroundObjects"/>
  </g>
 </g>
 <g class="SlideGroup">
  <g>
   <g id="container-id1">
    <g id="id1" class="Slide" clip-path="url(#presentation_clip_path)">
     <g class="Page">
      <g class="com.sun.star.drawing.ClosedBezierShape">
       <g id="id3">
        <rect class="BoundingBox" stroke="none" fill="none" x="191" y="191" width="1578" height="1577"/>
        <path fill="rgb(1,115,188)" stroke="none" d="M 690,464 L 682,451 648,472 636,451 666,432 659,420 628,439 618,422 651,401 644,388 598,416 644,492 690,464 Z M 767,367 L 767,367 C 769,369 771,370 774,372 775,372 775,373 776,373 L 776,373 C 780,374 784,375 788,375 789,375 790,375 791,375 L 791,375 C 793,374 796,374 798,374 800,374 802,374 805,375 L 805,375 C 806,375 807,375 809,376 809,376 809,377 810,377 L 810,377 C 810,377 810,378 811,379 812,380 812,380 812,381 L 812,381 C 813,382 813,384 813,385 813,387 812,389 811,391 L 811,391 811,391 C 810,393 808,395 806,396 805,397 804,397 803,397 794,400 787,396 783,386 L 770,391 C 777,410 790,417 807,413 L 807,413 C 809,412 812,411 814,410 819,407 822,404 824,400 825,399 825,399 825,398 L 825,398 C 827,395 828,390 828,386 828,383 827,380 826,377 L 826,377 C 825,374 824,372 823,369 822,368 821,366 820,365 L 820,365 C 818,363 816,361 814,360 813,359 811,359 810,358 L 810,358 C 805,357 801,356 796,356 795,356 794,356 793,356 L 793,356 C 790,357 788,357 786,357 783,357 781,357 779,356 L 779,356 778,356 C 777,355 776,354 775,353 774,352 774,352 774,351 L 774,351 C 774,350 774,349 774,348 774,347 774,345 774,344 L 774,344 C 775,343 776,343 778,342 779,341 781,340 783,340 L 783,340 C 785,339 786,339 788,339 789,339 791,339 793,340 L 793,340 C 795,341 797,343 798,345 799,346 799,347 800,348 L 813,343 813,343 C 812,341 811,338 810,336 807,332 804,330 801,327 800,326 800,326 800,326 L 800,326 C 797,325 793,324 790,324 786,324 782,325 779,326 L 779,326 C 776,327 774,327 771,329 768,330 768,332 766,333 L 766,333 C 765,335 764,336 763,338 762,340 761,342 760,344 L 760,344 C 759,347 759,348 759,351 759,353 759,356 760,358 L 760,358 760,358 C 762,362 764,364 767,367 Z M 707,452 L 712,449 720,445 712,429 705,413 705,411 705,411 707,411 712,409 714,409 714,409 C 716,409 718,410 719,411 721,412 725,415 732,420 L 749,433 765,425 750,413 750,413 C 746,409 742,406 737,403 L 737,403 C 734,402 730,401 727,400 L 727,400 C 729,398 731,396 733,393 734,390 735,389 736,386 L 736,386 C 736,385 736,383 736,381 736,377 735,373 733,369 L 733,369 C 733,368 733,367 732,366 730,363 728,360 725,357 L 725,357 C 724,357 723,356 722,356 720,354 717,354 714,353 L 714,353 706,355 698,359 670,372 705,448 707,452 Z M 689,378 L 699,374 C 701,372 704,371 705,370 L 710,369 710,369 711,369 C 712,369 712,369 713,369 L 713,369 714,369 C 715,369 715,369 716,369 L 716,369 C 717,370 718,371 719,372 719,373 720,374 720,374 L 720,374 720,374 C 721,376 721,378 721,380 L 721,381 721,381 C 721,382 721,384 720,385 720,385 719,386 719,387 L 719,387 C 718,388 716,389 715,390 714,390 713,390 713,391 L 713,391 712,391 C 711,392 709,392 708,393 L 705,394 698,397 689,378 Z M 1629,983 L 1629,983 C 1621,979 1612,978 1604,978 1603,978 1603,978 1603,978 L 1603,978 1603,978 C 1602,978 1600,978 1598,978 1590,978 1581,979 1574,984 1572,985 1571,986 1569,987 L 1569,987 C 1566,989 1564,992 1562,995 1559,1000 1558,1006 1558,1011 L 1558,1012 1558,1012 C 1558,1012 1558,1013 1558,1014 1558,1019 1559,1024 1562,1029 1563,1032 1565,1034 1568,1036 L 1568,1036 C 1570,1038 1572,1040 1575,1041 1583,1046 1592,1048 1601,1048 L 1602,1048 1602,1048 1602,1048 C 1603,1048 1604,1048 1605,1048 1615,1048 1623,1046 1631,1041 1633,1040 1634,1040 1635,1039 L 1635,1039 C 1638,1037 1641,1035 1643,1030 1645,1026 1647,1020 1647,1014 L 1647,1014 1647,1014 C 1647,1013 1647,1013 1647,1012 1647,1006 1645,1001 1643,996 L 1643,996 C 1639,991 1635,986 1630,983 L 1629,983 Z M 1625,1028 L 1625,1028 C 1624,1028 1624,1028 1624,1028 1618,1031 1612,1033 1606,1033 1605,1033 1604,1033 1602,1033 L 1602,1033 1601,1033 C 1594,1033 1588,1032 1582,1028 1581,1028 1580,1027 1580,1026 L 1580,1026 C 1578,1025 1576,1023 1575,1021 1573,1018 1573,1015 1573,1012 L 1573,1012 1573,1012 C 1573,1009 1573,1007 1575,1004 1576,1002 1578,999 1581,998 L 1581,998 1581,997 C 1587,994 1593,992 1599,992 1600,992 1601,992 1602,993 L 1602,993 1602,993 C 1602,993 1602,993 1603,993 1609,993 1615,994 1620,997 1621,998 1622,998 1623,999 L 1623,999 C 1625,1000 1627,1002 1628,1004 1629,1007 1630,1010 1630,1013 L 1630,1013 1630,1013 C 1630,1014 1630,1014 1630,1015 1630,1018 1629,1022 1628,1024 1627,1026 1626,1027 1625,1028 Z M 453,694 L 453,694 C 454,694 456,694 457,694 461,694 464,693 467,692 L 467,692 C 472,689 477,684 480,679 L 480,679 480,679 C 480,678 481,677 481,677 484,673 485,668 485,663 485,662 485,662 485,661 L 485,661 C 485,657 484,654 482,651 481,649 480,648 478,647 L 478,647 C 473,641 467,637 460,633 459,633 458,632 457,632 L 418,607 411,619 452,645 452,645 C 452,645 452,646 453,646 457,649 462,652 466,656 L 466,656 C 466,656 467,657 467,658 468,659 469,661 469,663 L 469,663 469,663 C 469,666 468,668 467,670 467,671 466,671 466,671 L 466,671 466,671 C 465,674 463,675 461,677 460,677 459,677 459,678 L 459,678 C 457,678 455,679 454,679 452,679 450,678 449,678 L 449,678 C 447,677 445,676 443,675 441,673 438,672 436,670 L 396,644 389,657 429,682 429,682 C 431,683 433,684 435,686 441,689 447,692 453,694 Z M 610,520 L 575,435 563,445 590,508 535,467 523,477 598,531 610,520 Z M 514,622 L 472,585 533,599 543,588 475,531 466,542 511,580 447,565 438,576 505,634 514,622 Z M 568,558 L 508,494 497,505 558,569 568,558 Z M 987,412 L 972,412 C 955,412 940,412 923,414 L 923,453 923,453 C 847,460 774,482 708,521 628,567 561,634 515,714 478,778 455,849 447,922 L 546,922 546,922 C 554,866 572,812 600,764 638,699 692,644 757,607 808,577 865,559 923,552 L 923,559 923,559 C 923,572 919,586 912,598 904,610 894,621 881,629 878,630 875,632 872,633 L 872,633 C 844,641 817,652 792,667 737,698 692,744 660,799 638,837 623,879 616,922 L 713,922 713,922 C 719,894 729,867 743,843 767,801 801,767 843,743 884,719 931,707 979,707 1027,707 1074,719 1115,743 1155,766 1188,799 1212,839 1236,878 1212,840 1214,841 1216,846 1218,850 1221,855 1223,860 1227,866 1229,871 L 1231,875 1231,875 C 1237,890 1242,906 1246,922 L 1343,922 1343,922 C 1336,879 1321,837 1299,799 1267,744 1222,698 1167,667 1142,652 1115,641 1087,633 L 1087,633 C 1084,632 1081,629 1078,628 1065,620 1053,610 1046,597 1039,585 1036,572 1035,558 L 1035,552 1035,552 C 1094,559 1151,577 1202,607 1267,644 1321,699 1359,764 1387,812 1405,866 1412,922 L 1512,922 1512,922 C 1504,849 1480,778 1444,715 1397,635 1331,568 1251,522 1185,484 1111,460 1036,453 L 1036,414 C 1019,413 1003,412 987,412 Z M 1413,583 L 1423,572 1395,544 1411,526 1437,552 1447,541 1421,516 1435,501 1463,529 1473,518 1434,480 1375,545 1413,583 Z M 1437,601 L 1437,601 C 1436,603 1436,606 1436,608 1436,613 1437,618 1440,623 1440,624 1441,625 1442,626 L 1442,626 C 1444,629 1447,632 1450,634 1453,636 1456,637 1459,637 L 1459,637 C 1460,637 1462,638 1464,638 1470,638 1476,636 1482,633 L 1478,618 1478,618 C 1473,621 1468,622 1463,622 L 1463,622 1463,622 C 1462,622 1460,621 1459,620 1457,618 1456,618 1455,616 L 1455,616 C 1454,616 1454,615 1453,614 1452,612 1451,609 1451,607 1451,605 1452,603 1452,602 L 1452,602 C 1453,600 1453,599 1454,598 1458,592 1462,587 1468,583 L 1468,583 C 1470,581 1472,580 1474,579 1479,576 1484,574 1489,574 L 1489,574 C 1489,574 1489,574 1490,574 1492,574 1495,574 1497,576 1499,577 1501,578 1502,580 L 1502,580 C 1502,581 1502,581 1503,582 1503,584 1505,586 1505,588 1505,589 1505,590 1505,590 L 1505,590 C 1504,593 1504,596 1502,598 1501,599 1501,600 1500,602 L 1511,610 1511,610 C 1513,609 1515,607 1516,605 1518,601 1519,597 1520,593 L 1520,593 C 1520,591 1520,590 1520,588 1520,584 1519,579 1517,575 1516,574 1515,573 1514,572 L 1514,572 C 1512,568 1509,565 1505,563 1501,560 1496,559 1492,559 L 1492,559 C 1483,559 1474,561 1466,566 1463,567 1460,570 1458,573 L 1458,573 C 1451,577 1446,583 1442,589 1439,593 1439,597 1437,601 Z M 868,395 L 850,308 836,310 855,398 868,395 Z M 413,842 L 359,825 421,813 425,799 342,774 338,786 394,804 330,815 326,829 409,855 413,842 Z M 1480,680 L 1514,661 1527,686 1494,705 1501,718 1577,674 1570,662 1540,680 1527,654 1556,637 1549,624 1473,668 1480,680 Z M 1221,397 L 1249,410 1255,396 1228,382 1236,363 1268,378 1274,364 1229,343 1193,425 1206,431 1221,397 Z M 1345,518 L 1390,460 1407,474 1416,462 1371,425 1362,437 1378,450 1333,510 1345,518 Z M 898,315 L 906,389 920,388 912,313 933,311 932,296 876,302 877,317 898,315 Z M 978,384 L 993,384 994,346 1021,295 1004,295 987,330 971,294 954,294 978,346 978,384 Z M 1141,409 L 1141,409 C 1144,410 1147,411 1150,411 1151,411 1152,411 1153,411 L 1153,411 C 1157,410 1161,408 1164,407 1165,406 1166,406 1167,405 L 1167,405 C 1172,401 1177,396 1181,390 1183,385 1185,380 1186,375 L 1186,375 C 1188,369 1189,363 1189,357 1189,351 1188,345 1186,339 L 1186,339 C 1186,337 1184,336 1184,335 1181,330 1178,326 1173,323 1171,322 1168,321 1165,320 L 1165,320 C 1162,319 1159,318 1156,318 1155,318 1154,318 1153,319 L 1153,319 C 1152,318 1151,318 1150,318 1149,318 1148,318 1147,319 L 1147,319 C 1145,319 1143,320 1141,321 1137,324 1134,326 1131,330 L 1131,330 C 1129,332 1127,335 1126,338 1123,343 1121,348 1119,354 L 1119,354 C 1117,359 1116,366 1116,372 1116,378 1117,384 1119,390 L 1119,390 C 1120,392 1121,393 1122,395 1124,399 1128,403 1133,406 1135,407 1138,408 1140,409 L 1141,409 Z M 1134,359 L 1134,359 C 1135,354 1137,350 1139,346 1141,343 1143,340 1146,337 L 1146,337 1147,337 C 1149,335 1151,335 1153,334 L 1153,334 C 1155,334 1156,334 1158,334 1159,334 1161,334 1162,334 L 1162,334 C 1163,334 1164,335 1166,336 1168,337 1170,339 1172,342 1173,343 1173,344 1173,345 L 1173,345 C 1174,349 1175,352 1175,355 1175,360 1174,365 1172,369 L 1172,369 C 1171,373 1170,378 1168,381 1166,385 1163,388 1160,390 L 1160,390 C 1160,391 1159,391 1158,392 1155,393 1152,394 1149,394 1148,394 1146,394 1145,394 L 1145,394 C 1144,393 1142,393 1141,392 1138,390 1135,388 1134,386 1133,385 1133,384 1133,382 L 1133,382 C 1132,379 1132,375 1132,372 1132,367 1132,363 1134,359 Z M 1517,755 L 1570,734 1528,783 1533,797 1605,768 1614,764 1609,751 1606,753 1555,773 1598,723 1592,710 1511,742 1517,755 Z M 1604,808 L 1604,808 C 1601,807 1598,807 1595,807 1590,807 1584,808 1579,809 L 1579,809 C 1573,810 1568,812 1563,815 1557,818 1552,822 1548,827 L 1548,827 C 1548,828 1547,829 1547,829 1544,834 1542,840 1542,846 1542,849 1543,852 1544,854 L 1544,854 C 1544,857 1545,860 1547,863 1550,867 1554,872 1559,875 1559,875 1559,875 1560,876 L 1560,876 C 1566,878 1574,880 1581,880 1586,880 1591,879 1595,878 L 1604,875 1604,875 C 1606,874 1609,873 1612,872 1617,869 1621,865 1625,860 L 1625,860 C 1626,859 1626,858 1627,857 1630,852 1631,846 1631,840 1631,838 1631,835 1630,832 L 1630,832 C 1630,829 1628,824 1627,822 1625,819 1623,817 1621,815 L 1621,815 C 1620,814 1618,812 1615,811 1612,809 1608,808 1604,807 L 1604,808 Z M 1616,836 L 1616,836 C 1617,837 1617,838 1617,840 1617,843 1615,845 1614,849 1613,849 1613,851 1612,852 L 1612,852 C 1611,854 1609,855 1607,857 1606,857 1604,858 1603,858 L 1603,858 C 1600,860 1596,861 1592,862 L 1592,862 C 1588,863 1584,864 1580,864 1576,864 1572,863 1569,862 L 1569,862 C 1568,862 1567,861 1566,861 1564,860 1562,858 1560,855 1559,853 1559,852 1558,850 L 1558,850 C 1558,848 1558,847 1558,845 1558,842 1558,839 1560,837 1560,836 1561,835 1562,834 L 1562,834 C 1564,832 1567,828 1570,827 1574,824 1579,824 1583,823 L 1583,823 C 1587,822 1590,822 1594,822 1597,822 1601,822 1604,823 L 1607,823 1607,823 C 1607,823 1606,823 1608,824 1611,825 1613,827 1614,830 1615,832 1616,834 1616,836 Z M 1556,909 L 1560,960 1574,959 1572,922 1603,920 1643,917 1643,902 1604,905 1556,909 Z M 1473,1438 L 1473,1438 C 1470,1439 1467,1439 1464,1441 L 1464,1441 C 1459,1444 1455,1448 1450,1452 1445,1456 1440,1450 1439,1448 1437,1446 1439,1442 1439,1441 1439,1440 1439,1436 1439,1432 1439,1428 1434,1428 1434,1428 L 1431,1428 1431,1428 C 1431,1429 1430,1429 1430,1429 1429,1430 1428,1430 1428,1431 L 1424,1434 1424,1434 C 1424,1435 1423,1435 1423,1436 1422,1437 1422,1438 1422,1439 L 1422,1439 C 1421,1439 1421,1440 1420,1441 1420,1442 1419,1443 1419,1444 L 1420,1444 C 1423,1446 1423,1444 1426,1444 1428,1444 1429,1444 1430,1445 1431,1447 1430,1452 1430,1453 L 1430,1453 C 1429,1453 1429,1454 1429,1455 1429,1456 1429,1457 1430,1458 1431,1459 1432,1460 1436,1460 1440,1461 1439,1462 1439,1462 L 1439,1464 C 1439,1464 1431,1474 1430,1476 L 1430,1476 C 1428,1478 1426,1480 1425,1482 1424,1483 1424,1484 1424,1485 1424,1486 1420,1491 1420,1491 L 1420,1491 C 1420,1492 1419,1493 1419,1494 1418,1495 1417,1496 1417,1497 1415,1498 1415,1499 1415,1499 1415,1499 1417,1499 1420,1499 1423,1499 1427,1495 1429,1492 1431,1490 1434,1485 1436,1482 1438,1480 1442,1475 1444,1472 1445,1470 1447,1469 1447,1469 L 1449,1472 1449,1472 C 1451,1474 1452,1477 1453,1479 L 1455,1486 1455,1490 C 1455,1491 1454,1497 1454,1497 L 1454,1497 C 1454,1498 1454,1499 1454,1500 1454,1500 1454,1501 1454,1502 1454,1504 1451,1503 1451,1504 1450,1505 1449,1504 1449,1504 L 1449,1504 C 1448,1504 1448,1504 1447,1504 1446,1504 1446,1504 1445,1504 L 1444,1504 1444,1505 1444,1505 C 1444,1506 1444,1506 1444,1506 1445,1508 1446,1509 1448,1510 L 1448,1510 C 1448,1510 1449,1510 1450,1510 1451,1510 1452,1510 1453,1510 1455,1510 1458,1509 1461,1504 L 1461,1504 C 1461,1503 1461,1503 1462,1502 1463,1501 1464,1497 1464,1495 1464,1494 1464,1493 1464,1492 L 1464,1492 C 1464,1491 1464,1489 1464,1487 1464,1485 1464,1484 1464,1482 L 1464,1482 C 1463,1476 1461,1470 1458,1464 L 1458,1464 1458,1461 C 1458,1461 1458,1462 1462,1457 1465,1453 1467,1455 1468,1454 L 1473,1450 1473,1450 C 1473,1449 1473,1449 1474,1448 1474,1446 1476,1444 1476,1441 1477,1438 1474,1438 1473,1438 Z M 1395,1400 L 1395,1400 C 1394,1399 1393,1399 1393,1398 L 1393,1397 1390,1394 1388,1394 C 1388,1394 1384,1394 1383,1394 1383,1394 1381,1394 1380,1394 1380,1394 1376,1396 1376,1398 L 1376,1398 C 1376,1399 1376,1400 1376,1401 1376,1402 1376,1403 1376,1404 L 1376,1404 C 1376,1405 1376,1406 1377,1407 1377,1408 1378,1409 1379,1409 1379,1410 1383,1415 1384,1415 1385,1415 1387,1415 1388,1415 L 1391,1415 1393,1415 1395,1412 1395,1412 C 1396,1412 1397,1412 1397,1412 1398,1412 1398,1412 1399,1412 L 1404,1412 1404,1412 1405,1411 C 1405,1410 1405,1410 1405,1410 L 1405,1410 C 1405,1409 1405,1407 1405,1406 1405,1405 1405,1403 1405,1402 L 1405,1402 C 1406,1401 1406,1400 1406,1400 1407,1399 1408,1398 1408,1397 L 1411,1395 1411,1395 C 1411,1394 1411,1394 1411,1393 L 1411,1392 1411,1392 C 1412,1388 1413,1385 1413,1381 1413,1377 1414,1374 1413,1373 L 1413,1370 1413,1370 C 1413,1370 1412,1370 1412,1369 1412,1368 1411,1367 1410,1366 L 1410,1366 C 1409,1366 1409,1366 1409,1366 1408,1366 1408,1366 1408,1366 L 1403,1364 1404,1364 C 1404,1364 1400,1364 1399,1364 L 1395,1367 C 1395,1367 1394,1370 1395,1371 L 1395,1371 C 1397,1374 1398,1377 1399,1379 L 1399,1379 C 1399,1382 1399,1385 1399,1387 1399,1390 1399,1392 1399,1395 L 1399,1395 C 1399,1395 1399,1396 1399,1397 L 1399,1398 C 1399,1399 1398,1402 1395,1400 Z M 873,1191 L 873,1095 858,1095 858,1095 C 858,1097 857,1099 856,1100 854,1104 851,1107 847,1110 L 847,1110 C 845,1112 842,1114 840,1115 837,1117 834,1118 832,1119 L 832,1136 832,1136 C 836,1134 839,1133 843,1130 847,1128 851,1125 855,1122 L 855,1191 873,1191 Z M 1392,1466 C 1392,1466 1391,1462 1390,1462 L 1389,1459 1389,1459 1389,1459 C 1389,1460 1388,1460 1388,1461 1387,1462 1386,1464 1386,1466 L 1386,1466 C 1386,1467 1385,1468 1385,1469 1385,1474 1387,1479 1389,1483 1389,1483 1390,1484 1390,1485 1396,1493 1397,1491 1399,1489 1400,1488 1406,1485 1405,1481 1405,1481 1402,1477 1400,1474 1398,1472 1393,1467 1392,1466 Z M 936,1177 L 936,1177 936,1177 C 935,1177 935,1177 935,1177 933,1177 932,1177 930,1176 929,1176 929,1175 928,1175 L 928,1175 C 928,1174 927,1173 927,1172 926,1171 925,1169 925,1167 L 907,1169 907,1169 C 908,1173 909,1177 911,1180 912,1183 914,1185 916,1187 L 916,1187 C 917,1188 918,1189 919,1189 924,1192 928,1193 933,1193 L 934,1193 936,1193 936,1193 C 941,1192 947,1191 951,1188 954,1186 957,1184 960,1181 L 960,1181 C 960,1181 960,1180 961,1179 966,1170 969,1159 969,1148 969,1147 969,1145 969,1144 L 969,1144 C 969,1142 969,1140 969,1138 969,1128 967,1118 962,1110 961,1109 960,1108 960,1107 L 960,1107 C 957,1103 954,1101 951,1099 946,1096 941,1095 936,1095 L 936,1095 936,1095 C 930,1095 925,1097 921,1099 919,1101 916,1102 914,1104 L 914,1104 C 913,1106 911,1108 910,1110 907,1115 906,1121 906,1126 906,1127 906,1127 906,1128 L 906,1128 906,1129 C 906,1135 907,1140 910,1145 911,1147 912,1149 914,1150 L 914,1150 C 916,1152 918,1154 921,1156 924,1158 929,1159 933,1159 L 933,1159 936,1159 936,1159 C 939,1159 941,1158 944,1156 946,1155 948,1153 950,1151 L 950,1151 C 950,1152 950,1152 950,1152 950,1159 948,1166 945,1173 L 945,1173 C 944,1174 943,1175 941,1176 939,1177 938,1177 936,1177 Z M 945,1141 L 945,1141 C 944,1142 943,1144 942,1144 940,1146 938,1145 936,1145 L 936,1145 936,1145 C 934,1145 932,1144 930,1143 929,1143 928,1142 927,1141 L 927,1141 927,1141 C 924,1137 923,1132 923,1127 923,1123 924,1118 927,1114 L 927,1114 927,1114 C 927,1113 928,1113 930,1112 931,1112 933,1110 935,1110 L 935,1110 935,1110 935,1110 C 937,1110 938,1111 940,1112 941,1113 943,1114 944,1115 L 944,1115 C 944,1116 944,1117 945,1117 946,1121 948,1124 948,1127 948,1128 948,1128 948,1129 L 948,1129 948,1130 C 948,1134 947,1137 945,1140 945,1140 945,1141 944,1141 L 945,1141 Z M 1425,1409 L 1425,1409 C 1427,1407 1429,1405 1432,1404 1432,1404 1433,1403 1434,1403 1438,1402 1439,1403 1439,1403 L 1439,1406 1439,1409 1439,1411 1439,1414 1439,1414 C 1438,1416 1437,1418 1437,1420 L 1437,1424 C 1437,1424 1439,1420 1440,1420 L 1442,1416 C 1442,1416 1446,1411 1447,1411 L 1447,1411 1448,1410 C 1448,1409 1449,1408 1449,1407 1449,1405 1449,1401 1449,1401 L 1449,1401 C 1448,1400 1448,1399 1448,1399 1447,1397 1446,1397 1445,1396 L 1445,1396 C 1445,1395 1444,1395 1444,1394 1443,1394 1442,1393 1441,1393 1428,1391 1416,1407 1409,1414 L 1409,1414 C 1408,1416 1407,1418 1406,1420 1401,1429 1397,1438 1394,1448 L 1394,1448 C 1393,1450 1393,1452 1392,1454 L 1392,1456 C 1394,1458 1396,1457 1399,1452 1402,1448 1400,1447 1409,1431 L 1409,1431 C 1409,1429 1410,1428 1411,1427 1415,1420 1419,1414 1425,1409 Z M 1036,1403 L 1036,1332 1036,1332 C 1082,1326 1126,1311 1167,1287 1222,1256 1267,1211 1299,1156 1313,1132 1324,1105 1332,1077 L 1232,1077 1232,1077 C 1227,1091 1221,1104 1214,1116 1190,1158 1155,1191 1114,1215 1073,1239 1026,1252 978,1252 930,1252 883,1239 842,1215 800,1191 767,1158 743,1116 736,1104 729,1091 724,1077 L 626,1077 626,1077 C 635,1105 646,1131 660,1155 692,1210 737,1256 792,1287 833,1311 878,1326 924,1332 L 924,1403 924,1403 C 865,1396 809,1378 757,1348 692,1310 637,1257 600,1191 579,1156 564,1117 555,1077 L 454,1077 454,1077 C 465,1134 486,1189 515,1240 561,1320 628,1387 708,1433 788,1480 879,1503 972,1503 L 987,1503 987,1503 C 1080,1503 1171,1480 1251,1433 1331,1387 1398,1320 1444,1240 1473,1189 1494,1134 1505,1077 L 1404,1077 1404,1077 C 1394,1117 1379,1155 1358,1191 1320,1256 1266,1311 1201,1348 1150,1378 1094,1396 1036,1403 Z M 1564,1184 L 1529,1172 1525,1186 1560,1198 1600,1240 1601,1237 1605,1224 1601,1220 1577,1197 1601,1193 1615,1191 1620,1175 1602,1178 1564,1184 Z M 1023,1095 L 1011,1114 983,1155 983,1172 1022,1172 1022,1191 1039,1191 1039,1172 1051,1172 1051,1155 1039,1155 1039,1095 1023,1095 Z M 1022,1155 L 999,1155 1010,1139 1021,1123 1022,1155 Z M 1621,1083 L 1621,1083 C 1619,1082 1618,1081 1617,1080 1612,1078 1607,1076 1602,1075 L 1602,1075 C 1601,1075 1601,1074 1600,1074 1599,1074 1598,1075 1597,1075 L 1597,1075 C 1593,1074 1589,1073 1585,1073 1581,1073 1577,1074 1572,1075 L 1572,1075 C 1569,1075 1566,1077 1563,1078 1560,1080 1557,1082 1555,1085 L 1555,1085 C 1553,1087 1552,1090 1551,1091 1549,1095 1547,1098 1546,1102 L 1546,1102 C 1546,1106 1546,1109 1546,1112 1546,1115 1546,1118 1546,1121 L 1546,1121 C 1547,1125 1549,1129 1551,1132 1552,1134 1552,1135 1553,1136 L 1588,1143 1593,1111 1579,1108 1576,1125 1565,1123 1565,1123 1564,1122 C 1563,1120 1562,1117 1561,1114 L 1561,1114 C 1561,1112 1561,1111 1561,1109 1561,1108 1561,1106 1561,1105 L 1561,1105 C 1562,1102 1562,1101 1563,1099 1565,1097 1567,1094 1570,1092 1570,1092 1571,1092 1571,1091 L 1571,1091 C 1576,1089 1582,1087 1588,1087 1590,1087 1593,1088 1595,1088 L 1602,1090 1602,1090 C 1604,1090 1606,1091 1608,1092 1611,1094 1613,1096 1615,1098 L 1615,1098 C 1616,1099 1616,1101 1617,1101 1618,1105 1620,1108 1620,1111 1620,1112 1620,1113 1620,1114 L 1620,1114 C 1619,1116 1619,1118 1618,1120 1617,1122 1616,1123 1614,1124 L 1614,1124 C 1614,1125 1613,1125 1612,1125 1609,1127 1606,1128 1603,1128 L 1603,1128 1603,1143 1603,1143 C 1604,1143 1605,1143 1606,1143 1611,1143 1616,1142 1620,1139 1622,1138 1623,1138 1624,1137 L 1624,1137 C 1627,1134 1629,1133 1631,1129 1633,1126 1634,1121 1635,1117 L 1635,1117 C 1635,1115 1635,1113 1635,1111 1635,1106 1634,1102 1633,1098 L 1633,1098 C 1632,1097 1631,1097 1631,1095 1628,1091 1625,1086 1621,1083 Z M 398,945 L 400,929 381,921 384,893 404,889 406,872 353,884 317,891 315,907 352,924 398,945 Z M 352,898 L 369,895 367,914 352,908 336,901 352,898 Z M 992,996 L 992,921 1096,921 1133,850 1054,837 992,916 992,893 1027,819 979,756 932,819 967,893 967,916 904,837 826,850 863,921 967,921 967,996 921,961 446,961 446,964 C 446,979 446,1017 448,1033 L 921,1033 974,1077 990,1077 1039,1033 1513,1033 C 1515,1017 1517,979 1517,964 L 1517,961 1039,961 992,996 Z M 1094,1177 L 1094,1177 1094,1177 1094,1177 C 1092,1177 1090,1177 1089,1176 1088,1176 1088,1175 1087,1175 L 1087,1175 C 1086,1174 1086,1173 1085,1172 1084,1171 1084,1169 1084,1167 L 1065,1168 1065,1168 C 1066,1172 1067,1176 1069,1179 1071,1182 1072,1184 1074,1186 L 1074,1186 C 1076,1187 1077,1188 1078,1188 1082,1191 1086,1192 1091,1192 L 1092,1192 1094,1192 1094,1192 C 1100,1192 1105,1190 1109,1188 1113,1186 1115,1183 1118,1181 L 1118,1181 C 1118,1180 1119,1179 1119,1178 1124,1169 1127,1159 1127,1148 1127,1147 1127,1145 1127,1143 L 1127,1143 C 1127,1141 1127,1140 1127,1138 1127,1128 1125,1118 1120,1109 1119,1108 1118,1107 1118,1106 L 1118,1106 C 1115,1103 1112,1102 1109,1099 1105,1097 1100,1095 1094,1095 L 1094,1095 1094,1095 C 1089,1095 1083,1097 1079,1099 1077,1101 1074,1102 1073,1104 L 1073,1104 C 1071,1105 1069,1107 1068,1109 1065,1114 1064,1120 1064,1126 L 1064,1127 1064,1127 C 1064,1128 1064,1128 1064,1129 1064,1134 1065,1140 1068,1144 1069,1146 1071,1148 1072,1150 L 1072,1150 C 1074,1152 1076,1154 1079,1155 1083,1157 1087,1159 1091,1159 L 1091,1159 1095,1159 1095,1159 C 1098,1158 1101,1157 1103,1156 1105,1155 1107,1153 1109,1151 L 1109,1151 1109,1152 C 1109,1159 1107,1166 1104,1172 L 1104,1172 C 1103,1174 1102,1175 1100,1176 1098,1177 1096,1177 1095,1177 1094,1177 1094,1177 1094,1177 Z M 1103,1141 L 1103,1141 C 1103,1142 1102,1143 1100,1144 1099,1145 1097,1145 1095,1145 L 1094,1145 1094,1145 1094,1145 C 1092,1145 1090,1144 1089,1143 1087,1143 1086,1142 1085,1141 L 1085,1141 C 1085,1140 1085,1141 1084,1139 1082,1137 1081,1132 1081,1129 1081,1128 1081,1128 1081,1127 L 1081,1127 C 1081,1127 1081,1126 1081,1125 1081,1122 1082,1120 1084,1116 1084,1116 1085,1115 1085,1114 L 1085,1114 C 1086,1113 1087,1113 1088,1112 1090,1112 1091,1110 1093,1110 L 1093,1110 1093,1110 1093,1110 C 1095,1110 1097,1112 1098,1112 1100,1114 1101,1114 1102,1115 L 1102,1115 C 1102,1116 1102,1117 1103,1117 1104,1121 1106,1124 1106,1128 1106,1128 1106,1128 1106,1129 L 1106,1129 C 1106,1129 1106,1130 1106,1131 1106,1134 1105,1138 1104,1141 L 1103,1141 Z M 424,1168 L 424,1168 C 422,1166 420,1164 418,1163 416,1162 415,1162 414,1161 L 414,1161 C 410,1160 406,1159 402,1159 401,1159 400,1159 399,1159 L 392,1161 392,1161 C 388,1161 383,1162 380,1164 L 380,1164 C 375,1165 371,1167 367,1169 365,1171 363,1172 361,1173 L 361,1173 C 357,1176 353,1180 350,1184 L 350,1184 350,1185 C 348,1188 346,1192 346,1196 L 346,1196 346,1197 C 346,1202 347,1207 349,1211 L 358,1237 391,1225 440,1207 431,1181 431,1181 C 430,1178 429,1176 427,1173 426,1171 425,1170 424,1168 Z M 391,1209 L 367,1218 365,1210 365,1210 C 363,1207 362,1203 361,1200 L 361,1200 C 361,1199 361,1199 361,1198 361,1196 362,1194 363,1192 L 363,1192 363,1192 C 365,1189 367,1187 370,1185 L 370,1185 C 371,1184 371,1184 372,1183 376,1181 380,1179 384,1178 L 391,1176 391,1176 C 393,1175 396,1174 398,1174 L 398,1174 C 400,1174 401,1174 403,1174 404,1174 406,1174 407,1174 L 407,1174 C 408,1174 409,1175 410,1175 411,1176 412,1177 412,1178 L 412,1178 C 413,1179 414,1180 415,1181 416,1183 417,1185 417,1187 L 421,1198 391,1209 Z M 416,1135 L 413,1120 392,1118 387,1089 405,1079 404,1063 361,1087 323,1108 326,1124 361,1128 416,1135 Z M 361,1104 L 374,1097 378,1117 361,1114 344,1112 361,1104 Z M 611,1406 L 611,1406 C 611,1404 610,1403 610,1402 610,1402 610,1402 609,1401 L 605,1401 601,1400 598,1402 598,1403 592,1408 584,1414 584,1414 C 581,1417 578,1419 575,1421 L 575,1421 C 575,1421 574,1422 573,1422 571,1423 569,1424 566,1424 L 566,1424 566,1424 C 561,1423 556,1421 552,1418 549,1416 545,1415 544,1414 L 544,1414 C 543,1414 542,1414 541,1414 540,1414 539,1414 538,1414 L 538,1414 C 537,1414 536,1414 535,1414 534,1414 533,1414 533,1414 531,1414 531,1414 531,1414 L 531,1416 531,1418 531,1418 C 530,1419 530,1420 530,1422 530,1424 530,1425 531,1427 532,1429 533,1430 535,1431 538,1432 539,1432 543,1434 546,1436 544,1437 543,1439 541,1441 538,1443 538,1443 L 531,1445 531,1445 C 527,1446 524,1447 520,1448 L 516,1449 512,1449 504,1451 501,1452 484,1452 C 484,1452 483,1452 480,1450 477,1448 475,1448 475,1448 L 475,1448 C 475,1450 476,1451 476,1452 477,1453 479,1455 481,1456 481,1456 482,1456 482,1457 483,1458 486,1457 486,1457 L 486,1457 C 494,1459 501,1460 509,1460 512,1460 514,1460 517,1460 525,1458 536,1454 536,1454 L 538,1454 538,1456 538,1458 538,1462 535,1476 533,1484 533,1484 C 530,1492 528,1500 528,1508 L 528,1508 C 529,1511 530,1513 531,1515 534,1520 537,1524 542,1527 545,1529 546,1527 546,1527 L 547,1524 547,1520 547,1514 547,1511 546,1507 543,1495 C 543,1495 543,1484 543,1482 543,1481 545,1470 545,1470 L 546,1467 547,1463 547,1459 546,1457 544,1455 544,1455 C 544,1455 544,1455 543,1454 542,1453 542,1454 542,1453 L 542,1453 542,1453 C 549,1449 556,1446 564,1444 L 564,1444 C 565,1444 566,1443 567,1443 568,1443 570,1444 571,1444 L 571,1444 C 573,1447 575,1449 578,1450 579,1451 580,1452 581,1452 L 581,1452 582,1452 C 584,1454 585,1454 588,1454 590,1454 593,1454 595,1452 L 596,1452 597,1450 595,1445 592,1441 589,1438 586,1436 586,1436 583,1433 C 581,1432 586,1430 586,1430 L 586,1430 C 589,1429 592,1427 595,1426 601,1423 606,1418 611,1413 612,1410 611,1407 611,1406 Z M 399,962 L 311,959 311,974 398,978 399,962 Z M 397,995 L 382,995 384,1031 313,1035 313,1050 399,1045 397,995 Z M 1389,1433 L 1389,1433 C 1389,1432 1389,1432 1389,1431 1389,1430 1389,1430 1389,1429 1389,1429 1387,1426 1385,1426 L 1385,1426 C 1384,1426 1384,1426 1383,1425 1382,1425 1381,1425 1381,1424 1380,1423 1381,1423 1381,1422 L 1381,1422 1381,1422 C 1381,1421 1381,1421 1381,1420 L 1381,1419 1381,1419 C 1381,1419 1379,1416 1378,1416 L 1376,1413 C 1376,1413 1374,1411 1373,1411 L 1368,1411 C 1368,1411 1368,1411 1368,1414 L 1368,1414 C 1368,1419 1369,1423 1371,1428 L 1371,1428 C 1371,1428 1371,1429 1372,1429 1374,1433 1376,1436 1379,1439 1382,1442 1384,1441 1384,1441 L 1384,1441 1385,1441 C 1386,1441 1387,1441 1388,1440 1389,1440 1389,1439 1390,1439 L 1390,1439 C 1390,1438 1390,1437 1390,1436 1390,1435 1390,1434 1390,1434 1389,1433 1389,1433 1389,1433 Z M 1346,1563 L 1346,1563 C 1345,1562 1344,1562 1343,1562 1342,1562 1340,1562 1339,1563 L 1332,1563 1332,1563 C 1330,1562 1329,1562 1327,1562 1325,1562 1324,1562 1322,1563 L 1322,1563 C 1321,1563 1319,1563 1318,1563 1316,1563 1316,1563 1314,1563 L 1305,1563 1299,1563 1299,1563 C 1297,1562 1294,1562 1291,1561 L 1291,1561 C 1287,1559 1282,1557 1277,1556 L 1277,1556 C 1274,1556 1272,1557 1269,1557 1267,1557 1269,1556 1269,1556 1269,1556 1267,1551 1267,1550 L 1267,1550 C 1267,1547 1266,1544 1266,1541 1266,1536 1272,1531 1274,1530 L 1274,1530 1274,1530 C 1276,1529 1278,1527 1280,1526 1281,1524 1281,1520 1281,1518 L 1281,1518 C 1282,1517 1282,1517 1282,1516 1282,1515 1282,1515 1281,1514 1281,1513 1279,1514 1279,1514 L 1276,1516 1272,1517 1267,1521 1267,1521 C 1265,1522 1263,1523 1262,1525 L 1260,1522 1259,1518 1255,1512 1255,1512 C 1255,1511 1255,1510 1255,1509 1255,1509 1255,1508 1255,1507 L 1255,1507 C 1253,1504 1251,1501 1250,1498 1249,1497 1249,1495 1248,1494 L 1248,1494 C 1248,1494 1248,1493 1247,1493 1247,1492 1246,1491 1245,1491 L 1244,1490 1240,1490 1238,1490 1235,1490 1233,1491 1233,1493 1233,1493 C 1233,1493 1233,1493 1233,1494 1233,1494 1233,1494 1233,1495 L 1233,1495 C 1234,1495 1234,1496 1234,1497 1234,1497 1234,1497 1235,1497 L 1237,1500 1237,1500 C 1239,1502 1240,1504 1242,1507 1243,1510 1246,1514 1248,1518 1249,1520 1250,1525 1250,1526 L 1250,1526 C 1250,1526 1250,1527 1250,1528 1250,1529 1250,1529 1250,1530 L 1250,1530 C 1250,1531 1250,1533 1251,1534 1252,1535 1252,1535 1252,1535 1253,1535 1252,1539 1252,1539 L 1252,1539 C 1252,1540 1251,1541 1250,1543 L 1250,1544 1250,1544 C 1249,1545 1248,1547 1247,1548 1245,1549 1244,1548 1244,1550 1243,1552 1242,1553 1242,1553 1237,1555 1237,1557 1236,1558 L 1236,1558 1236,1559 C 1236,1560 1236,1561 1236,1561 L 1236,1561 1236,1561 C 1236,1562 1236,1563 1237,1564 1237,1564 1237,1564 1238,1565 1238,1565 1241,1565 1244,1567 L 1244,1567 1244,1567 C 1246,1567 1247,1566 1249,1565 1249,1565 1250,1565 1250,1564 L 1250,1564 C 1250,1564 1251,1564 1251,1563 L 1251,1563 1251,1563 C 1252,1561 1253,1560 1253,1559 L 1253,1559 1254,1557 C 1256,1556 1257,1559 1258,1560 L 1258,1560 C 1258,1561 1258,1562 1258,1563 1258,1564 1258,1565 1258,1566 1257,1567 1258,1566 1258,1574 L 1258,1574 C 1258,1576 1258,1577 1258,1578 1258,1584 1257,1590 1256,1596 L 1256,1596 C 1256,1599 1255,1602 1254,1606 1254,1607 1251,1611 1251,1612 L 1251,1612 C 1250,1613 1250,1613 1249,1614 L 1249,1614 C 1249,1614 1248,1614 1248,1615 L 1248,1616 1248,1616 1250,1616 C 1251,1616 1252,1616 1252,1616 1252,1616 1254,1616 1257,1615 L 1257,1615 C 1258,1613 1260,1611 1261,1609 L 1261,1608 1261,1608 C 1261,1607 1261,1607 1261,1606 1261,1606 1261,1606 1261,1605 1261,1603 1265,1597 1265,1597 L 1265,1595 1265,1593 1266,1590 1266,1586 1266,1586 C 1266,1585 1266,1585 1266,1584 L 1266,1583 1266,1581 1266,1576 1266,1576 C 1266,1574 1266,1573 1265,1571 1265,1570 1264,1563 1264,1563 1264,1563 1264,1561 1270,1563 L 1301,1580 1301,1580 C 1307,1582 1314,1583 1320,1583 L 1320,1583 1320,1583 C 1324,1583 1327,1582 1330,1580 1331,1579 1332,1579 1333,1578 L 1333,1578 C 1333,1578 1334,1577 1334,1576 1334,1576 1334,1575 1335,1575 1335,1574 1335,1571 1335,1571 1335,1570 1336,1567 1336,1567 1336,1567 1340,1564 1341,1563 1342,1562 1346,1563 1346,1563 Z M 768,1508 C 765,1508 766,1506 766,1506 L 768,1503 768,1499 768,1496 C 768,1496 768,1494 766,1494 L 766,1494 C 766,1493 765,1493 765,1493 764,1493 764,1492 764,1492 L 764,1492 764,1492 C 763,1492 762,1491 761,1491 760,1491 759,1492 758,1492 L 758,1492 758,1492 C 758,1493 758,1493 758,1494 757,1495 756,1497 754,1498 L 751,1503 C 749,1506 747,1505 746,1506 L 746,1506 C 745,1506 743,1506 742,1506 741,1506 739,1506 738,1506 L 725,1506 C 724,1506 720,1506 719,1507 L 719,1507 C 719,1508 719,1509 719,1509 719,1510 719,1511 719,1511 L 719,1511 C 719,1512 719,1513 719,1513 719,1514 719,1515 719,1516 L 719,1516 C 719,1516 718,1516 719,1517 720,1518 720,1518 721,1519 L 722,1519 722,1519 C 723,1519 723,1519 724,1519 725,1519 726,1519 726,1519 727,1519 728,1520 729,1521 729,1523 728,1523 728,1523 L 727,1523 725,1525 723,1529 718,1533 715,1535 711,1539 711,1539 C 710,1540 708,1541 707,1543 L 707,1543 C 706,1545 706,1546 706,1548 L 706,1550 706,1550 C 706,1551 706,1551 706,1551 707,1553 709,1555 711,1556 L 711,1556 C 712,1557 713,1557 715,1557 L 715,1557 C 715,1558 715,1558 716,1558 716,1558 716,1558 717,1557 L 717,1557 C 720,1556 722,1556 725,1555 728,1555 725,1558 725,1558 L 725,1558 C 725,1559 724,1559 724,1560 L 724,1560 C 723,1561 722,1563 722,1564 721,1564 721,1565 721,1565 L 719,1570 719,1570 C 718,1570 718,1570 718,1570 L 717,1570 716,1570 710,1570 702,1570 702,1570 C 701,1570 700,1570 700,1570 699,1570 699,1570 698,1570 L 698,1570 C 697,1570 697,1570 696,1570 695,1570 695,1570 694,1570 L 690,1572 690,1572 C 690,1572 690,1572 689,1572 L 689,1572 689,1572 C 688,1572 687,1573 687,1573 L 687,1574 687,1574 C 688,1576 690,1577 691,1578 692,1579 692,1578 693,1578 L 693,1578 C 693,1579 693,1579 693,1579 694,1579 696,1580 697,1580 698,1581 704,1580 705,1580 L 705,1580 C 706,1580 706,1580 707,1580 L 708,1580 C 710,1580 708,1580 708,1581 L 708,1581 C 708,1582 708,1582 708,1582 708,1583 708,1583 708,1583 L 707,1586 707,1586 C 705,1589 703,1591 701,1594 701,1596 698,1597 700,1599 L 700,1599 700,1599 700,1600 C 700,1601 700,1601 700,1602 L 700,1602 C 698,1603 693,1599 690,1596 L 690,1596 C 685,1590 678,1585 672,1580 665,1576 672,1577 672,1577 L 672,1574 672,1572 670,1568 C 670,1568 668,1563 668,1562 L 668,1560 668,1557 669,1555 669,1555 C 671,1553 672,1552 674,1551 L 679,1546 C 683,1543 686,1544 688,1543 L 688,1543 C 689,1543 690,1543 690,1543 692,1542 693,1540 694,1539 694,1539 694,1539 694,1538 696,1535 693,1533 692,1531 691,1530 685,1526 683,1527 680,1528 679,1532 679,1532 L 679,1532 C 679,1532 679,1533 679,1534 679,1534 679,1535 679,1536 L 679,1536 C 679,1536 680,1536 680,1537 L 680,1538 680,1539 C 680,1540 679,1540 679,1540 L 679,1540 C 677,1543 674,1546 671,1548 L 671,1548 671,1548 C 668,1549 667,1550 665,1552 L 665,1552 C 664,1554 663,1555 662,1557 662,1558 660,1563 660,1564 L 660,1564 C 661,1565 661,1566 661,1567 661,1568 661,1569 660,1571 660,1574 657,1573 657,1573 L 655,1573 655,1573 655,1573 C 654,1573 653,1573 652,1573 652,1573 651,1573 650,1573 648,1575 648,1576 649,1577 L 649,1577 C 650,1577 650,1577 651,1578 653,1579 655,1580 657,1580 L 657,1580 C 662,1581 667,1583 671,1585 673,1586 674,1587 675,1588 L 675,1588 C 679,1590 682,1593 685,1597 686,1597 692,1607 696,1612 L 696,1612 C 699,1617 703,1621 707,1625 709,1627 714,1629 715,1630 L 725,1634 C 734,1637 737,1637 740,1634 L 740,1634 740,1633 C 740,1632 741,1632 741,1631 741,1630 740,1629 740,1629 740,1628 740,1628 740,1628 739,1628 735,1624 733,1623 L 733,1623 C 731,1622 729,1621 727,1620 726,1619 725,1619 724,1618 L 713,1611 708,1608 708,1607 C 708,1607 708,1606 709,1607 710,1609 712,1605 712,1605 L 716,1597 C 716,1597 720,1588 722,1585 L 722,1585 723,1584 C 724,1583 725,1583 726,1583 L 727,1583 C 727,1583 730,1586 735,1583 L 735,1583 C 735,1583 736,1582 737,1581 737,1580 738,1579 738,1578 738,1577 738,1577 738,1576 L 738,1576 C 737,1576 736,1575 735,1574 L 730,1572 730,1572 730,1572 C 729,1572 729,1572 729,1572 728,1572 729,1570 729,1570 L 734,1561 737,1558 740,1555 C 741,1553 743,1553 748,1552 753,1551 752,1549 752,1549 L 752,1549 C 751,1548 749,1547 748,1546 748,1546 747,1546 747,1545 747,1545 747,1543 749,1541 L 749,1541 C 749,1540 749,1540 749,1539 749,1538 749,1537 748,1535 747,1534 747,1534 746,1534 744,1532 743,1534 743,1534 L 743,1534 C 742,1535 742,1535 741,1536 740,1537 741,1537 741,1537 L 738,1541 732,1544 728,1544 C 722,1544 723,1543 723,1543 723,1539 741,1527 743,1526 L 743,1526 C 743,1526 743,1526 744,1526 747,1524 751,1523 754,1523 755,1523 757,1523 758,1523 766,1523 765,1526 771,1524 776,1523 777,1521 778,1519 779,1517 776,1515 776,1513 775,1512 768,1508 768,1508 Z M 1136,1606 L 1136,1606 C 1135,1606 1135,1606 1134,1606 1133,1606 1133,1606 1132,1606 L 1132,1606 C 1128,1607 1125,1607 1121,1607 1120,1607 1120,1607 1119,1607 L 1119,1607 C 1119,1607 1119,1607 1118,1607 1114,1607 1110,1608 1107,1609 L 1107,1609 C 1105,1609 1104,1609 1102,1609 1101,1609 1100,1609 1098,1609 1096,1609 1098,1607 1098,1607 L 1098,1607 C 1102,1604 1105,1601 1107,1598 1116,1586 1114,1581 1114,1580 1114,1579 1111,1576 1106,1573 L 1106,1573 C 1104,1573 1102,1572 1101,1572 1097,1572 1094,1573 1091,1575 L 1090,1576 1090,1576 C 1085,1579 1080,1583 1075,1588 L 1075,1588 C 1075,1588 1075,1589 1075,1590 1075,1590 1075,1591 1075,1592 1075,1593 1077,1594 1077,1595 L 1080,1596 1080,1596 C 1081,1597 1082,1597 1084,1597 1085,1597 1087,1597 1088,1596 1090,1596 1090,1596 1091,1594 1091,1592 1090,1594 1095,1591 1099,1588 1099,1591 1099,1591 1099,1600 1087,1612 1087,1612 L 1084,1614 1084,1614 C 1077,1615 1070,1618 1063,1622 1062,1623 1060,1624 1058,1625 1052,1629 1053,1631 1053,1631 L 1053,1631 C 1053,1632 1053,1632 1053,1633 1053,1634 1053,1636 1054,1637 1055,1638 1056,1639 1057,1640 1058,1641 1058,1641 1059,1641 L 1059,1641 C 1060,1641 1061,1641 1061,1641 1063,1641 1065,1641 1066,1640 L 1067,1640 1067,1640 C 1086,1630 1106,1625 1127,1623 L 1127,1623 C 1128,1623 1129,1623 1130,1623 1131,1623 1133,1623 1134,1623 1135,1623 1136,1618 1139,1616 L 1139,1616 C 1139,1616 1139,1616 1140,1615 1141,1614 1141,1612 1141,1611 1141,1610 1138,1608 1136,1606 Z M 934,1551 L 934,1551 C 931,1552 928,1553 925,1555 924,1556 922,1557 921,1558 L 921,1558 C 919,1559 918,1560 917,1561 916,1562 916,1564 916,1566 916,1567 919,1567 919,1567 L 923,1567 926,1567 C 927,1567 930,1564 933,1562 L 933,1562 C 937,1560 941,1559 945,1558 L 951,1558 956,1559 959,1563 959,1563 C 958,1566 958,1570 956,1573 954,1575 956,1573 952,1580 L 952,1580 C 948,1586 943,1590 937,1594 936,1594 935,1594 934,1594 L 934,1594 934,1593 C 934,1592 934,1592 934,1591 L 936,1591 C 936,1591 939,1590 939,1588 939,1587 942,1584 943,1584 944,1584 945,1583 945,1583 L 947,1580 947,1579 947,1575 945,1574 945,1573 942,1572 941,1569 C 936,1564 936,1566 936,1566 L 936,1566 C 935,1567 935,1568 935,1569 935,1569 935,1570 936,1571 L 936,1571 C 935,1572 935,1573 935,1573 934,1574 934,1574 934,1574 L 934,1574 933,1575 C 930,1577 927,1579 924,1581 924,1583 922,1584 922,1586 L 922,1586 C 924,1587 926,1588 927,1589 L 927,1589 927,1589 C 927,1590 928,1590 928,1590 928,1591 929,1592 929,1592 L 929,1592 C 929,1593 929,1593 929,1594 L 929,1595 929,1595 927,1597 925,1599 920,1599 918,1600 918,1600 917,1600 917,1598 917,1596 917,1596 917,1595 C 918,1595 918,1594 918,1593 L 918,1593 C 918,1592 919,1590 919,1588 L 919,1581 C 919,1579 917,1577 915,1577 913,1577 910,1578 907,1584 L 907,1584 C 905,1589 903,1594 902,1600 902,1602 902,1603 902,1603 L 904,1605 C 904,1605 905,1608 907,1609 908,1610 910,1609 911,1608 912,1607 910,1609 913,1607 915,1606 915,1607 915,1607 L 919,1610 C 920,1610 922,1608 923,1608 924,1608 923,1611 923,1611 923,1612 922,1614 922,1614 L 920,1622 916,1626 913,1626 913,1626 C 913,1626 914,1626 913,1627 912,1628 911,1627 910,1627 L 909,1627 C 906,1627 907,1627 907,1627 L 907,1627 C 907,1628 907,1628 907,1629 907,1629 907,1630 907,1631 907,1631 909,1634 910,1634 L 911,1636 911,1636 911,1636 C 911,1639 910,1641 910,1643 L 910,1643 C 909,1644 909,1644 909,1645 L 908,1646 903,1646 C 902,1646 899,1646 897,1646 L 893,1646 889,1646 887,1646 C 886,1646 887,1648 887,1648 887,1648 889,1651 889,1652 L 889,1652 C 889,1653 889,1653 890,1654 891,1655 892,1656 893,1657 L 893,1657 897,1657 914,1657 914,1657 C 915,1657 916,1657 916,1657 921,1657 926,1658 931,1660 L 931,1660 C 931,1661 931,1661 931,1661 931,1662 932,1663 933,1663 934,1664 935,1664 936,1664 L 936,1664 936,1664 C 939,1663 941,1663 944,1661 945,1661 946,1660 947,1659 949,1657 949,1656 949,1656 949,1656 949,1653 944,1650 L 944,1650 C 936,1648 928,1646 919,1645 917,1645 918,1640 918,1640 L 918,1640 C 918,1638 917,1636 919,1634 920,1633 920,1633 920,1633 926,1628 930,1631 934,1630 937,1630 939,1630 940,1628 L 940,1628 940,1628 C 941,1627 941,1626 941,1625 941,1625 940,1624 940,1623 939,1622 940,1622 939,1621 L 939,1621 939,1621 C 937,1621 935,1620 933,1620 L 933,1620 931,1620 927,1620 925,1619 927,1611 927,1611 C 927,1609 928,1607 929,1605 L 929,1605 C 939,1598 949,1590 957,1580 L 957,1580 C 957,1580 958,1579 959,1578 961,1573 963,1568 964,1562 L 964,1562 964,1561 C 964,1558 964,1556 962,1554 L 962,1553 C 953,1541 938,1548 934,1551 Z M 897,1610 C 897,1608 896,1610 896,1610 896,1610 896,1610 896,1611 890,1617 868,1641 866,1643 L 866,1643 C 865,1643 863,1645 863,1643 863,1641 863,1635 865,1633 L 867,1631 C 870,1627 877,1618 879,1615 L 879,1615 879,1615 C 881,1611 882,1607 882,1603 L 882,1603 882,1603 C 882,1602 882,1601 882,1600 882,1600 882,1599 882,1598 L 882,1598 C 885,1590 889,1582 893,1574 L 893,1574 C 894,1573 895,1572 896,1571 L 896,1571 C 898,1570 900,1568 902,1566 L 902,1566 903,1565 C 903,1564 904,1563 904,1562 904,1561 903,1560 903,1559 L 902,1558 C 901,1556 898,1557 896,1557 L 893,1557 893,1557 C 890,1558 887,1558 885,1559 883,1559 876,1560 875,1561 L 875,1561 C 873,1562 871,1562 868,1564 L 868,1564 C 867,1564 867,1565 866,1566 865,1567 865,1567 865,1568 L 865,1568 C 865,1569 869,1571 869,1571 L 869,1571 869,1571 C 871,1572 873,1573 875,1573 877,1573 879,1572 880,1571 881,1571 881,1571 881,1571 L 881,1571 881,1571 882,1571 C 882,1571 882,1571 883,1571 L 883,1571 C 883,1571 875,1594 872,1593 L 872,1593 C 872,1592 871,1592 870,1592 869,1592 867,1593 865,1593 L 865,1593 C 863,1593 861,1594 859,1595 L 858,1596 858,1596 C 857,1597 856,1598 855,1600 853,1603 852,1606 852,1609 852,1609 852,1609 852,1610 L 852,1610 C 852,1610 853,1610 853,1611 854,1613 855,1614 857,1615 858,1616 860,1616 862,1616 L 862,1616 862,1616 C 863,1616 863,1616 864,1616 L 865,1616 865,1616 C 866,1616 866,1616 866,1616 868,1615 869,1613 871,1612 L 865,1622 853,1643 853,1646 853,1646 C 852,1647 852,1647 852,1648 852,1648 852,1649 853,1649 L 853,1649 C 853,1650 854,1651 855,1652 L 855,1652 C 856,1652 856,1652 856,1652 857,1652 857,1652 857,1652 L 857,1652 C 858,1652 859,1652 860,1652 861,1652 862,1652 864,1651 L 865,1650 C 866,1649 865,1650 865,1650 865,1650 869,1644 872,1641 874,1638 889,1620 894,1614 L 897,1610 Z M 868,1607 L 865,1609 C 863,1611 861,1612 859,1609 L 859,1609 C 859,1608 859,1606 860,1605 860,1604 861,1603 863,1602 L 865,1601 865,1601 C 866,1600 867,1600 868,1600 869,1600 870,1600 871,1601 873,1600 872,1603 868,1606 L 868,1607 Z M 979,191 L 979,191 979,191 C 841,191 705,227 585,297 465,366 365,465 296,585 227,705 191,841 191,979 191,1116 227,1252 296,1372 365,1492 465,1592 585,1661 705,1731 840,1766 979,1766 1117,1766 1253,1731 1373,1661 1492,1592 1593,1492 1662,1372 1731,1252 1768,1116 1768,979 L 1768,979 1768,979 1768,979 C 1768,841 1731,705 1662,585 1593,465 1493,366 1374,297 1254,227 1118,191 979,191 Z M 979,1708 L 979,1708 979,1708 C 851,1708 725,1676 614,1611 503,1547 410,1454 346,1343 281,1232 248,1106 248,979 248,851 281,725 346,614 410,503 503,410 614,346 725,282 851,248 979,248 L 979,248 979,248 C 1108,248 1234,282 1345,346 1456,410 1547,503 1612,614 1676,725 1710,851 1710,979 1710,1106 1676,1232 1612,1343 1547,1454 1456,1547 1345,1611 1234,1676 1108,1708 979,1708 Z"/>
       </g>
      </g>
     </g>
    </g>
   </g>
  </g>
 </g>
</svg>